HIERARCHY
ROOT hip
{
  OFFSET 0 0 0
  CHANNELS 6 Xposition Yposition Zposition Zrotation Yrotation Xrotation
  JOINT abdomen
  {
    OFFSET 0 20.6881 -0.73152
    CHANNELS 3 Zrotation Xrotation Yrotation
    JOINT chest
    {
      OFFSET 0 11.7043 -0.48768
      CHANNELS 3 Zrotation Xrotation Yrotation
      JOINT neck
      {
        OFFSET 0 22.1894 -2.19456
        CHANNELS 3 Zrotation Xrotation Yrotation
        JOINT head
        {
          OFFSET -0.24384 7.07133 1.2192
          CHANNELS 3 Zrotation Xrotation Yrotation
          JOINT leftEye
          {
            OFFSET 4.14528 8.04674 8.04672
            CHANNELS 3 Zrotation Xrotation Yrotation
            End Site
            {
              OFFSET 1 0 0
            }
          }
          JOINT rightEye
          {
            OFFSET -3.6576 8.04674 8.04672
            CHANNELS 3 Zrotation Xrotation Yrotation
            End Site
            {
              OFFSET 1 0 0
            }
          }
        }
      }
      JOINT rCollar
      {
        OFFSET -2.68224 19.2634 -4.8768
        CHANNELS 3 Zrotation Xrotation Yrotation
        JOINT rShldr
        {
          OFFSET -8.77824 -1.95073 1.46304
          CHANNELS 3 Zrotation Xrotation Yrotation
          JOINT rForeArm
          {
            OFFSET -28.1742 -1.7115 0.48768
            CHANNELS 3 Zrotation Xrotation Yrotation
            JOINT rHand
            {
              OFFSET -22.5879 0.773209 7.07136
              CHANNELS 3 Zrotation Xrotation Yrotation
              JOINT rThumb1
              {
                OFFSET -1.2192 -0.487915 3.41376
                CHANNELS 3 Zrotation Xrotation Yrotation
                JOINT rThumb2
                {
                  OFFSET -3.37035 -0.52449 3.41376
                  CHANNELS 3 Zrotation Xrotation Yrotation
                  End Site
                  {
                    OFFSET -1.78271 -1.18214 1.43049
                  }
                }
              }
              JOINT rIndex1
              {
                OFFSET -7.75947 0.938293 5.60832
                CHANNELS 3 Zrotation Xrotation Yrotation
                JOINT rIndex2
                {
                  OFFSET -2.54057 -0.884171 1.56538
                  CHANNELS 3 Zrotation Xrotation Yrotation
                  End Site
                  {
                    OFFSET -1.62519 -0.234802 1.16502
                  }
                }
              }
              JOINT rMid1
              {
                OFFSET -8.24714 1.18213 3.41376
                CHANNELS 3 Zrotation Xrotation Yrotation
                JOINT rMid2
                {
                  OFFSET -3.10165 -0.590103 1.0647
                  CHANNELS 3 Zrotation Xrotation Yrotation
                  End Site
                  {
                    OFFSET -2.48547 -0.328903 0.83742
                  }
                }
              }
              JOINT rRing1
              {
                OFFSET -8.82822 0.546677 1.51678
                CHANNELS 3 Zrotation Xrotation Yrotation
                JOINT rRing2
                {
                  OFFSET -2.60934 -0.819778 -0.0198488
                  CHANNELS 3 Zrotation Xrotation Yrotation
                  End Site
                  {
                    OFFSET -2.33842 -0.294052 0.168128
                  }
                }
              }
              JOINT rPinky1
              {
                OFFSET -8.27202 -0.0477905 -0.4584
                CHANNELS 3 Zrotation Xrotation Yrotation
                JOINT rPinky2
                {
                  OFFSET -1.82734 -0.647385 -0.700984
                  CHANNELS 3 Zrotation Xrotation Yrotation
                  End Site
                  {
                    OFFSET -1.69225 -0.51767 -0.607171
                  }
                }
              }
            }
          }
        }
      }
      JOINT lCollar
      {
        OFFSET 2.68224 19.2634 -4.8768
        CHANNELS 3 Zrotation Xrotation Yrotation
        JOINT lShldr
        {
          OFFSET 8.77824 -1.95073 1.46304
          CHANNELS 3 Zrotation Xrotation Yrotation
          JOINT lForeArm
          {
            OFFSET 28.1742 -1.7115 0.48768
            CHANNELS 3 Zrotation Xrotation Yrotation
            JOINT lHand
            {
              OFFSET 22.5879 0.773209 7.07136
              CHANNELS 3 Zrotation Xrotation Yrotation
              JOINT lThumb1
              {
                OFFSET 1.2192 -0.487915 3.41376
                CHANNELS 3 Zrotation Xrotation Yrotation
                JOINT lThumb2
                {
                  OFFSET 3.37035 -0.52449 3.41376
                  CHANNELS 3 Zrotation Xrotation Yrotation
                  End Site
                  {
                    OFFSET 1.78271 -1.18214 1.43049
                  }
                }
              }
              JOINT lIndex1
              {
                OFFSET 7.75947 0.938293 5.60832
                CHANNELS 3 Zrotation Xrotation Yrotation
                JOINT lIndex2
                {
                  OFFSET 2.54057 -0.884171 1.56538
                  CHANNELS 3 Zrotation Xrotation Yrotation
                  End Site
                  {
                    OFFSET 1.62519 -0.234802 1.16502
                  }
                }
              }
              JOINT lMid1
              {
                OFFSET 8.24714 1.18213 3.41376
                CHANNELS 3 Zrotation Xrotation Yrotation
                JOINT lMid2
                {
                  OFFSET 3.10165 -0.590103 1.0647
                  CHANNELS 3 Zrotation Xrotation Yrotation
                  End Site
                  {
                    OFFSET 2.48547 -0.328903 0.83742
                  }
                }
              }
              JOINT lRing1
              {
                OFFSET 8.82822 0.546677 1.51678
                CHANNELS 3 Zrotation Xrotation Yrotation
                JOINT lRing2
                {
                  OFFSET 2.60934 -0.819778 -0.0198488
                  CHANNELS 3 Zrotation Xrotation Yrotation
                  End Site
                  {
                    OFFSET 2.33842 -0.294052 0.168128
                  }
                }
              }
              JOINT lPinky1
              {
                OFFSET 8.27202 -0.0477905 -0.4584
                CHANNELS 3 Zrotation Xrotation Yrotation
                JOINT lPinky2
                {
                  OFFSET 1.82734 -0.647385 -0.700984
                  CHANNELS 3 Zrotation Xrotation Yrotation
                  End Site
                  {
                    OFFSET 1.69225 -0.51767 -0.607171
                  }
                }
              }
            }
          }
        }
      }
    }
  }
  JOINT rButtock
  {
    OFFSET -8.77824 4.35084 1.2192
    CHANNELS 3 Zrotation Xrotation Yrotation
    JOINT rThigh
    {
      OFFSET 0 -1.70687 -2.19456
      CHANNELS 3 Zrotation Xrotation Yrotation
      JOINT rShin
      {
        OFFSET 0 -36.8199 0.73152
        CHANNELS 3 Zrotation Xrotation Yrotation
        JOINT rFoot
        {
          OFFSET 0.73152 -45.1104 -5.12064
          CHANNELS 3 Zrotation Xrotation Yrotation
          End Site
          {
            OFFSET -1.1221 -3.69964 12.103
          }
        }
      }
    }
  }
  JOINT lButtock
  {
    OFFSET 8.77824 4.35084 1.2192
    CHANNELS 3 Zrotation Xrotation Yrotation
    JOINT lThigh
    {
      OFFSET 0 -1.70687 -2.19456
      CHANNELS 3 Zrotation Xrotation Yrotation
      JOINT lShin
      {
        OFFSET 0 -36.8199 0.73152
        CHANNELS 3 Zrotation Xrotation Yrotation
        JOINT lFoot
        {
          OFFSET -0.73152 -45.1104 -5.12064
          CHANNELS 3 Zrotation Xrotation Yrotation
          End Site
          {
            OFFSET 1.1221 -3.69964 12.103
          }
        }
      }
    }
  }
}
MOTION
Frames:	4
Frame Time:	0.00833333
-3.01894 83.8214 26.3595 -1.1322 4.7845 26.523 0.686348 31.7474 2.37557 -1.00435 -12.3966 0.607115 -1.98285 4.38575 -1.68052 7.88606 -12.4163 -2.02382 -0.0 0.0 0.0 -0.0 0.0 0.0 -1.0125e-13 4.56738e-15 -1.69743e-14 35.2753 34.2065 44.3292 -19.1634 -11.9946 36.6853 -0.132536 10.3246 1.4671 -1.57757e-09 -8.88707e-10 1.19964e-10 -2.72913e-09 -1.56053e-09 2.25046e-10 -1.57757e-09 -8.88714e-10 1.19965e-10 7.73091 5.47488 0.417314 -1.57757e-09 -8.88706e-10 1.19964e-10 2.90554 0.965183 0.102902 -1.57757e-09 -8.88707e-10 1.19966e-10 10.2786 0.731801 0.0259123 -1.57757e-09 -8.88707e-10 1.19977e-10 2.22167 -0.733487 -0.20892 -1.01219e-13 4.57767e-15 -1.72135e-14 -36.4317 31.8985 -53.3682 18.9728 -11.7723 -36.2404 0.217773 13.1794 -1.88593 3.25262e-09 2.47242e-09 9.56003e-10 5.63461e-09 4.21702e-09 1.61205e-09 3.25262e-09 2.47242e-09 9.56015e-10 -7.73091 5.47488 -0.417314 3.25262e-09 2.47242e-09 9.5601e-10 -2.90554 0.965183 -0.102902 3.25262e-09 2.47242e-09 9.56006e-10 -10.2786 0.731801 -0.0259123 3.25263e-09 2.47242e-09 9.55999e-10 -2.22167 -0.733487 0.20892 -2.03217e-16 0.0 -3.88251e-19 -7.74263 -30.709 -2.82184 -0.001419 8.93566 0.26569 -5.91175 -14.8026 -18.4428 2.03217e-16 0.0 3.88251e-19 8.00324 -45.8936 -2.44872 0.136346 28.8035 -0.577681 1.86848 -9.99628 8.04539
-3.0094 83.825 26.3705 -1.1848 4.6232 26.5171 0.537234 31.773 2.59677 -0.99331 -12.3694 0.656691 -1.92044 4.29776 -1.51116 6.9032 -12.4426 -1.81049 -0.0 0.0 0.0 -0.0 0.0 0.0 -1.40846e-13 1.13043e-14 -9.82392e-15 34.8954 34.2796 44.5027 -19.2149 -12.0552 36.8061 -0.130247 10.236 1.45424 -9.69801e-10 -6.55292e-10 2.25788e-10 -1.67714e-09 -1.14888e-09 4.01839e-10 -9.69801e-10 -6.55295e-10 2.25789e-10 7.73091 5.47488 0.417314 -9.69803e-10 -6.55291e-10 2.25786e-10 2.90554 0.965183 0.102902 -9.69804e-10 -6.55293e-10 2.25791e-10 10.2786 0.731801 0.0259123 -9.69809e-10 -6.55293e-10 2.25801e-10 2.22167 -0.733487 -0.20892 -1.40854e-13 1.13083e-14 -1.01031e-14 -36.8411 31.7064 -53.2783 18.93 -11.7227 -36.1411 0.224782 13.3836 -1.91626 2.87162e-09 2.50857e-09 1.00544e-09 4.97565e-09 4.28747e-09 1.70212e-09 2.87161e-09 2.50856e-09 1.00545e-09 -7.73091 5.47488 -0.417314 2.87162e-09 2.50856e-09 1.00545e-09 -2.90554 0.965183 -0.102902 2.87162e-09 2.50856e-09 1.00545e-09 -10.2786 0.731801 -0.0259123 2.87162e-09 2.50856e-09 1.00544e-09 -2.22167 -0.733487 0.20892 -2.03217e-16 0.0 -3.88251e-19 -7.68164 -30.6933 -2.59519 -0.00155738 8.86965 0.264692 -5.91867 -14.7675 -18.4957 2.03217e-16 0.0 3.88251e-19 8.0803 -45.8261 -2.36124 0.1359 28.8093 -0.579099 1.90047 -10.022 8.17171
-2.99171 83.8277 26.3452 -1.1508 4.6794 26.5201 0.448539 31.7987 2.69993 -0.976724 -12.3482 0.679351 -1.84511 4.22795 -1.34105 6.04916 -12.4944 -1.58298 -0.0 0.0 0.0 -0.0 0.0 0.0 -1.47879e-13 1.27226e-14 -5.41688e-15 34.5849 34.3462 44.6735 -19.2606 -12.1092 36.9137 -0.128164 10.1546 1.44243 -7.72614e-10 -4.63422e-10 2.16898e-10 -1.3362e-09 -8.13853e-10 3.84143e-10 -7.72615e-10 -4.63423e-10 2.16898e-10 7.73091 5.47488 0.417314 -7.72617e-10 -4.63421e-10 2.16895e-10 2.90554 0.965183 0.102902 -7.72619e-10 -4.63424e-10 2.169e-10 10.2786 0.731801 0.0259123 -7.72622e-10 -4.63424e-10 2.16911e-10 2.22167 -0.733487 -0.20892 -1.47923e-13 1.27224e-14 -5.71506e-15 -37.1423 31.5247 -53.206 18.9034 -11.6919 -36.0797 0.228514 13.4896 -1.93203 2.57537e-09 2.49058e-09 9.94384e-10 4.46312e-09 4.26245e-09 1.68657e-09 2.57536e-09 2.49058e-09 9.94394e-10 -7.73091 5.47488 -0.417314 2.57537e-09 2.49057e-09 9.94391e-10 -2.90554 0.965183 -0.102902 2.57536e-09 2.49057e-09 9.94387e-10 -10.2786 0.731801 -0.0259123 2.57537e-09 2.49058e-09 9.94381e-10 -2.22167 -0.733487 0.20892 -2.03217e-16 0.0 -3.88251e-19 -7.64001 -30.6678 -2.46882 -0.00146653 8.80517 0.263737 -5.92325 -14.7423 -18.5352 2.03217e-16 0.0 3.88251e-19 8.12358 -45.7927 -2.33017 0.135819 28.8163 -0.579867 1.91968 -10.036 8.24554
-2.96477 83.8296 26.2978 -1.0537 4.8597 26.5276 0.445675 31.823 2.63286 -0.953821 -12.33 0.662956 -1.74944 4.17594 -1.16505 5.35577 -12.5781 -1.32839 -0.0 0.0 0.0 -0.0 0.0 0.0 -9.4759e-14 4.6223e-15 -6.0707e-15 34.3778 34.4077 44.8456 -19.2998 -12.1558 37.0059 -0.126361 10.0837 1.43214 -1.24236e-09 -3.15362e-10 8.43892e-12 -2.15034e-09 -5.62197e-10 2.75845e-11 -1.24237e-09 -3.15362e-10 8.43768e-12 7.73091 5.47488 0.417314 -1.24237e-09 -3.15362e-10 8.43602e-12 2.90554 0.965183 0.102902 -1.24237e-09 -3.15364e-10 8.44223e-12 10.2786 0.731801 0.0259123 -1.24237e-09 -3.15364e-10 8.45386e-12 2.22167 -0.733487 -0.20892 -9.48381e-14 4.62118e-15 -6.35334e-15 -37.299 31.347 -53.1506 18.9017 -11.6899 -36.0758 0.226755 13.4391 -1.92451 2.33069e-09 2.36102e-09 8.72757e-10 4.0395e-09 4.04335e-09 1.47932e-09 2.33069e-09 2.36101e-09 8.72765e-10 -7.73091 5.47488 -0.417314 2.33069e-09 2.36101e-09 8.72759e-10 -2.90554 0.965183 -0.102902 2.33069e-09 2.36101e-09 8.72759e-10 -10.2786 0.731801 -0.0259123 2.33069e-09 2.36102e-09 8.72753e-10 -2.22167 -0.733487 0.20892 -2.03217e-16 0.0 -3.88251e-19 -7.62663 -30.6312 -2.48253 -0.00112406 8.74176 0.262817 -5.92417 -14.7305 -18.5553 2.03217e-16 0.0 3.88251e-19 8.11963 -45.8099 -2.37585 0.136253 28.8253 -0.579721 1.92023 -10.0339 8.24241
